<mxfile host="Electron" modified="2023-12-20T06:54:11.567Z" agent="Mozilla/5.0 (Windows NT 10.0; Win64; x64) AppleWebKit/537.36 (KHTML, like Gecko) draw.io/22.1.11 Chrome/114.0.5735.289 Electron/25.9.8 Safari/537.36" etag="rd2AHS37EI6wskIon68U" version="22.1.11" type="device">
  <diagram name="第 1 页" id="g1n8n51PdztZq1jEJeeL">
    <mxGraphModel dx="1098" dy="828" grid="1" gridSize="10" guides="1" tooltips="1" connect="1" arrows="1" fold="1" page="1" pageScale="1" pageWidth="827" pageHeight="1169" math="0" shadow="0">
      <root>
        <mxCell id="0" />
        <mxCell id="1" parent="0" />
        <mxCell id="lS8r_42K6CeIt3bEVWHj-1" value="IAssetFactory" style="swimlane;fontStyle=1;align=center;verticalAlign=top;childLayout=stackLayout;horizontal=1;startSize=26;horizontalStack=0;resizeParent=1;resizeParentMax=0;resizeLast=0;collapsible=1;marginBottom=0;whiteSpace=wrap;html=1;" vertex="1" parent="1">
          <mxGeometry x="334" y="210" width="160" height="210" as="geometry" />
        </mxCell>
        <mxCell id="lS8r_42K6CeIt3bEVWHj-3" value="" style="line;strokeWidth=1;fillColor=none;align=left;verticalAlign=middle;spacingTop=-1;spacingLeft=3;spacingRight=3;rotatable=0;labelPosition=right;points=[];portConstraint=eastwest;strokeColor=inherit;" vertex="1" parent="lS8r_42K6CeIt3bEVWHj-1">
          <mxGeometry y="26" width="160" height="8" as="geometry" />
        </mxCell>
        <mxCell id="lS8r_42K6CeIt3bEVWHj-4" value="+LoadSoldier()" style="text;strokeColor=none;fillColor=none;align=left;verticalAlign=top;spacingLeft=4;spacingRight=4;overflow=hidden;rotatable=0;points=[[0,0.5],[1,0.5]];portConstraint=eastwest;whiteSpace=wrap;html=1;" vertex="1" parent="lS8r_42K6CeIt3bEVWHj-1">
          <mxGeometry y="34" width="160" height="26" as="geometry" />
        </mxCell>
        <mxCell id="lS8r_42K6CeIt3bEVWHj-5" value="+LoadEnemy()" style="text;html=1;strokeColor=none;fillColor=none;align=left;verticalAlign=middle;whiteSpace=wrap;rounded=0;spacingLeft=4;spacingRight=4;" vertex="1" parent="lS8r_42K6CeIt3bEVWHj-1">
          <mxGeometry y="60" width="160" height="30" as="geometry" />
        </mxCell>
        <mxCell id="lS8r_42K6CeIt3bEVWHj-8" value="+LoadWeapon()" style="text;html=1;strokeColor=none;fillColor=none;align=left;verticalAlign=middle;whiteSpace=wrap;rounded=0;spacingLeft=4;spacingRight=4;" vertex="1" parent="lS8r_42K6CeIt3bEVWHj-1">
          <mxGeometry y="90" width="160" height="30" as="geometry" />
        </mxCell>
        <mxCell id="lS8r_42K6CeIt3bEVWHj-10" value="+LoadEffect()" style="text;html=1;strokeColor=none;fillColor=none;align=left;verticalAlign=middle;whiteSpace=wrap;rounded=0;spacingLeft=4;spacingRight=4;" vertex="1" parent="lS8r_42K6CeIt3bEVWHj-1">
          <mxGeometry y="120" width="160" height="30" as="geometry" />
        </mxCell>
        <mxCell id="lS8r_42K6CeIt3bEVWHj-11" value="+LoadAudioClip()" style="text;html=1;strokeColor=none;fillColor=none;align=left;verticalAlign=middle;whiteSpace=wrap;rounded=0;spacingLeft=4;spacingRight=4;" vertex="1" parent="lS8r_42K6CeIt3bEVWHj-1">
          <mxGeometry y="150" width="160" height="30" as="geometry" />
        </mxCell>
        <mxCell id="lS8r_42K6CeIt3bEVWHj-12" value="+LoadSprite()" style="text;html=1;strokeColor=none;fillColor=none;align=left;verticalAlign=middle;whiteSpace=wrap;rounded=0;spacingLeft=4;spacingRight=4;" vertex="1" parent="lS8r_42K6CeIt3bEVWHj-1">
          <mxGeometry y="180" width="160" height="30" as="geometry" />
        </mxCell>
        <mxCell id="lS8r_42K6CeIt3bEVWHj-59" style="rounded=0;orthogonalLoop=1;jettySize=auto;html=1;exitX=0.5;exitY=0;exitDx=0;exitDy=0;entryX=0.5;entryY=1;entryDx=0;entryDy=0;endArrow=block;endFill=0;" edge="1" parent="1" source="lS8r_42K6CeIt3bEVWHj-13" target="lS8r_42K6CeIt3bEVWHj-12">
          <mxGeometry relative="1" as="geometry" />
        </mxCell>
        <mxCell id="lS8r_42K6CeIt3bEVWHj-13" value="RemoteAssetFactory" style="swimlane;fontStyle=1;align=center;verticalAlign=top;childLayout=stackLayout;horizontal=1;startSize=26;horizontalStack=0;resizeParent=1;resizeParentMax=0;resizeLast=0;collapsible=1;marginBottom=0;whiteSpace=wrap;html=1;" vertex="1" parent="1">
          <mxGeometry x="334" y="500" width="160" height="210" as="geometry" />
        </mxCell>
        <mxCell id="lS8r_42K6CeIt3bEVWHj-14" value="" style="line;strokeWidth=1;fillColor=none;align=left;verticalAlign=middle;spacingTop=-1;spacingLeft=3;spacingRight=3;rotatable=0;labelPosition=right;points=[];portConstraint=eastwest;strokeColor=inherit;" vertex="1" parent="lS8r_42K6CeIt3bEVWHj-13">
          <mxGeometry y="26" width="160" height="8" as="geometry" />
        </mxCell>
        <mxCell id="lS8r_42K6CeIt3bEVWHj-15" value="+LoadSoldier()" style="text;strokeColor=none;fillColor=none;align=left;verticalAlign=top;spacingLeft=4;spacingRight=4;overflow=hidden;rotatable=0;points=[[0,0.5],[1,0.5]];portConstraint=eastwest;whiteSpace=wrap;html=1;" vertex="1" parent="lS8r_42K6CeIt3bEVWHj-13">
          <mxGeometry y="34" width="160" height="26" as="geometry" />
        </mxCell>
        <mxCell id="lS8r_42K6CeIt3bEVWHj-16" value="+LoadEnemy()" style="text;html=1;strokeColor=none;fillColor=none;align=left;verticalAlign=middle;whiteSpace=wrap;rounded=0;spacingLeft=4;spacingRight=4;" vertex="1" parent="lS8r_42K6CeIt3bEVWHj-13">
          <mxGeometry y="60" width="160" height="30" as="geometry" />
        </mxCell>
        <mxCell id="lS8r_42K6CeIt3bEVWHj-17" value="+LoadWeapon()" style="text;html=1;strokeColor=none;fillColor=none;align=left;verticalAlign=middle;whiteSpace=wrap;rounded=0;spacingLeft=4;spacingRight=4;" vertex="1" parent="lS8r_42K6CeIt3bEVWHj-13">
          <mxGeometry y="90" width="160" height="30" as="geometry" />
        </mxCell>
        <mxCell id="lS8r_42K6CeIt3bEVWHj-18" value="+LoadEffect()" style="text;html=1;strokeColor=none;fillColor=none;align=left;verticalAlign=middle;whiteSpace=wrap;rounded=0;spacingLeft=4;spacingRight=4;" vertex="1" parent="lS8r_42K6CeIt3bEVWHj-13">
          <mxGeometry y="120" width="160" height="30" as="geometry" />
        </mxCell>
        <mxCell id="lS8r_42K6CeIt3bEVWHj-19" value="+LoadAudioClip()" style="text;html=1;strokeColor=none;fillColor=none;align=left;verticalAlign=middle;whiteSpace=wrap;rounded=0;spacingLeft=4;spacingRight=4;" vertex="1" parent="lS8r_42K6CeIt3bEVWHj-13">
          <mxGeometry y="150" width="160" height="30" as="geometry" />
        </mxCell>
        <mxCell id="lS8r_42K6CeIt3bEVWHj-20" value="+LoadSprite()" style="text;html=1;strokeColor=none;fillColor=none;align=left;verticalAlign=middle;whiteSpace=wrap;rounded=0;spacingLeft=4;spacingRight=4;" vertex="1" parent="lS8r_42K6CeIt3bEVWHj-13">
          <mxGeometry y="180" width="160" height="30" as="geometry" />
        </mxCell>
        <mxCell id="lS8r_42K6CeIt3bEVWHj-61" style="edgeStyle=none;rounded=0;orthogonalLoop=1;jettySize=auto;html=1;exitX=0.5;exitY=0;exitDx=0;exitDy=0;entryX=0.75;entryY=1;entryDx=0;entryDy=0;endArrow=block;endFill=0;" edge="1" parent="1" source="lS8r_42K6CeIt3bEVWHj-21" target="lS8r_42K6CeIt3bEVWHj-12">
          <mxGeometry relative="1" as="geometry" />
        </mxCell>
        <mxCell id="lS8r_42K6CeIt3bEVWHj-21" value="LocalAssetFactory" style="swimlane;fontStyle=1;align=center;verticalAlign=top;childLayout=stackLayout;horizontal=1;startSize=26;horizontalStack=0;resizeParent=1;resizeParentMax=0;resizeLast=0;collapsible=1;marginBottom=0;whiteSpace=wrap;html=1;" vertex="1" parent="1">
          <mxGeometry x="560" y="500" width="160" height="210" as="geometry" />
        </mxCell>
        <mxCell id="lS8r_42K6CeIt3bEVWHj-22" value="" style="line;strokeWidth=1;fillColor=none;align=left;verticalAlign=middle;spacingTop=-1;spacingLeft=3;spacingRight=3;rotatable=0;labelPosition=right;points=[];portConstraint=eastwest;strokeColor=inherit;" vertex="1" parent="lS8r_42K6CeIt3bEVWHj-21">
          <mxGeometry y="26" width="160" height="8" as="geometry" />
        </mxCell>
        <mxCell id="lS8r_42K6CeIt3bEVWHj-23" value="+LoadSoldier()" style="text;strokeColor=none;fillColor=none;align=left;verticalAlign=top;spacingLeft=4;spacingRight=4;overflow=hidden;rotatable=0;points=[[0,0.5],[1,0.5]];portConstraint=eastwest;whiteSpace=wrap;html=1;" vertex="1" parent="lS8r_42K6CeIt3bEVWHj-21">
          <mxGeometry y="34" width="160" height="26" as="geometry" />
        </mxCell>
        <mxCell id="lS8r_42K6CeIt3bEVWHj-24" value="+LoadEnemy()" style="text;html=1;strokeColor=none;fillColor=none;align=left;verticalAlign=middle;whiteSpace=wrap;rounded=0;spacingLeft=4;spacingRight=4;" vertex="1" parent="lS8r_42K6CeIt3bEVWHj-21">
          <mxGeometry y="60" width="160" height="30" as="geometry" />
        </mxCell>
        <mxCell id="lS8r_42K6CeIt3bEVWHj-25" value="+LoadWeapon()" style="text;html=1;strokeColor=none;fillColor=none;align=left;verticalAlign=middle;whiteSpace=wrap;rounded=0;spacingLeft=4;spacingRight=4;" vertex="1" parent="lS8r_42K6CeIt3bEVWHj-21">
          <mxGeometry y="90" width="160" height="30" as="geometry" />
        </mxCell>
        <mxCell id="lS8r_42K6CeIt3bEVWHj-26" value="+LoadEffect()" style="text;html=1;strokeColor=none;fillColor=none;align=left;verticalAlign=middle;whiteSpace=wrap;rounded=0;spacingLeft=4;spacingRight=4;" vertex="1" parent="lS8r_42K6CeIt3bEVWHj-21">
          <mxGeometry y="120" width="160" height="30" as="geometry" />
        </mxCell>
        <mxCell id="lS8r_42K6CeIt3bEVWHj-27" value="+LoadAudioClip()" style="text;html=1;strokeColor=none;fillColor=none;align=left;verticalAlign=middle;whiteSpace=wrap;rounded=0;spacingLeft=4;spacingRight=4;" vertex="1" parent="lS8r_42K6CeIt3bEVWHj-21">
          <mxGeometry y="150" width="160" height="30" as="geometry" />
        </mxCell>
        <mxCell id="lS8r_42K6CeIt3bEVWHj-28" value="+LoadSprite()" style="text;html=1;strokeColor=none;fillColor=none;align=left;verticalAlign=middle;whiteSpace=wrap;rounded=0;spacingLeft=4;spacingRight=4;" vertex="1" parent="lS8r_42K6CeIt3bEVWHj-21">
          <mxGeometry y="180" width="160" height="30" as="geometry" />
        </mxCell>
        <mxCell id="lS8r_42K6CeIt3bEVWHj-62" style="edgeStyle=none;rounded=0;orthogonalLoop=1;jettySize=auto;html=1;exitX=0.5;exitY=0;exitDx=0;exitDy=0;entryX=0.25;entryY=1;entryDx=0;entryDy=0;endArrow=block;endFill=0;" edge="1" parent="1" source="lS8r_42K6CeIt3bEVWHj-45" target="lS8r_42K6CeIt3bEVWHj-12">
          <mxGeometry relative="1" as="geometry" />
        </mxCell>
        <mxCell id="lS8r_42K6CeIt3bEVWHj-45" value="ResourceAssetFactory" style="swimlane;fontStyle=1;align=center;verticalAlign=top;childLayout=stackLayout;horizontal=1;startSize=26;horizontalStack=0;resizeParent=1;resizeParentMax=0;resizeLast=0;collapsible=1;marginBottom=0;whiteSpace=wrap;html=1;" vertex="1" parent="1">
          <mxGeometry x="100" y="500" width="160" height="210" as="geometry" />
        </mxCell>
        <mxCell id="lS8r_42K6CeIt3bEVWHj-46" value="" style="line;strokeWidth=1;fillColor=none;align=left;verticalAlign=middle;spacingTop=-1;spacingLeft=3;spacingRight=3;rotatable=0;labelPosition=right;points=[];portConstraint=eastwest;strokeColor=inherit;" vertex="1" parent="lS8r_42K6CeIt3bEVWHj-45">
          <mxGeometry y="26" width="160" height="8" as="geometry" />
        </mxCell>
        <mxCell id="lS8r_42K6CeIt3bEVWHj-47" value="+LoadSoldier()" style="text;strokeColor=none;fillColor=none;align=left;verticalAlign=top;spacingLeft=4;spacingRight=4;overflow=hidden;rotatable=0;points=[[0,0.5],[1,0.5]];portConstraint=eastwest;whiteSpace=wrap;html=1;" vertex="1" parent="lS8r_42K6CeIt3bEVWHj-45">
          <mxGeometry y="34" width="160" height="26" as="geometry" />
        </mxCell>
        <mxCell id="lS8r_42K6CeIt3bEVWHj-48" value="+LoadEnemy()" style="text;html=1;strokeColor=none;fillColor=none;align=left;verticalAlign=middle;whiteSpace=wrap;rounded=0;spacingLeft=4;spacingRight=4;" vertex="1" parent="lS8r_42K6CeIt3bEVWHj-45">
          <mxGeometry y="60" width="160" height="30" as="geometry" />
        </mxCell>
        <mxCell id="lS8r_42K6CeIt3bEVWHj-49" value="+LoadWeapon()" style="text;html=1;strokeColor=none;fillColor=none;align=left;verticalAlign=middle;whiteSpace=wrap;rounded=0;spacingLeft=4;spacingRight=4;" vertex="1" parent="lS8r_42K6CeIt3bEVWHj-45">
          <mxGeometry y="90" width="160" height="30" as="geometry" />
        </mxCell>
        <mxCell id="lS8r_42K6CeIt3bEVWHj-50" value="+LoadEffect()" style="text;html=1;strokeColor=none;fillColor=none;align=left;verticalAlign=middle;whiteSpace=wrap;rounded=0;spacingLeft=4;spacingRight=4;" vertex="1" parent="lS8r_42K6CeIt3bEVWHj-45">
          <mxGeometry y="120" width="160" height="30" as="geometry" />
        </mxCell>
        <mxCell id="lS8r_42K6CeIt3bEVWHj-51" value="+LoadAudioClip()" style="text;html=1;strokeColor=none;fillColor=none;align=left;verticalAlign=middle;whiteSpace=wrap;rounded=0;spacingLeft=4;spacingRight=4;" vertex="1" parent="lS8r_42K6CeIt3bEVWHj-45">
          <mxGeometry y="150" width="160" height="30" as="geometry" />
        </mxCell>
        <mxCell id="lS8r_42K6CeIt3bEVWHj-52" value="+LoadSprite()" style="text;html=1;strokeColor=none;fillColor=none;align=left;verticalAlign=middle;whiteSpace=wrap;rounded=0;spacingLeft=4;spacingRight=4;" vertex="1" parent="lS8r_42K6CeIt3bEVWHj-45">
          <mxGeometry y="180" width="160" height="30" as="geometry" />
        </mxCell>
        <mxCell id="lS8r_42K6CeIt3bEVWHj-53" value="PBDFactory" style="swimlane;fontStyle=1;align=center;verticalAlign=top;childLayout=stackLayout;horizontal=1;startSize=26;horizontalStack=0;resizeParent=1;resizeParentMax=0;resizeLast=0;collapsible=1;marginBottom=0;whiteSpace=wrap;html=1;" vertex="1" parent="1">
          <mxGeometry x="80" y="298" width="160" height="34" as="geometry" />
        </mxCell>
        <mxCell id="lS8r_42K6CeIt3bEVWHj-55" value="" style="line;strokeWidth=1;fillColor=none;align=left;verticalAlign=middle;spacingTop=-1;spacingLeft=3;spacingRight=3;rotatable=0;labelPosition=right;points=[];portConstraint=eastwest;strokeColor=inherit;" vertex="1" parent="lS8r_42K6CeIt3bEVWHj-53">
          <mxGeometry y="26" width="160" height="8" as="geometry" />
        </mxCell>
        <mxCell id="lS8r_42K6CeIt3bEVWHj-63" style="edgeStyle=none;rounded=0;orthogonalLoop=1;jettySize=auto;html=1;exitX=0.5;exitY=1;exitDx=0;exitDy=0;entryX=0.5;entryY=0;entryDx=0;entryDy=0;endArrow=open;endFill=0;" edge="1" parent="1" source="lS8r_42K6CeIt3bEVWHj-57" target="lS8r_42K6CeIt3bEVWHj-53">
          <mxGeometry relative="1" as="geometry" />
        </mxCell>
        <mxCell id="lS8r_42K6CeIt3bEVWHj-57" value="OtherSystems" style="swimlane;fontStyle=1;align=center;verticalAlign=top;childLayout=stackLayout;horizontal=1;startSize=26;horizontalStack=0;resizeParent=1;resizeParentMax=0;resizeLast=0;collapsible=1;marginBottom=0;whiteSpace=wrap;html=1;" vertex="1" parent="1">
          <mxGeometry x="80" y="170" width="160" height="34" as="geometry" />
        </mxCell>
        <mxCell id="lS8r_42K6CeIt3bEVWHj-58" value="" style="line;strokeWidth=1;fillColor=none;align=left;verticalAlign=middle;spacingTop=-1;spacingLeft=3;spacingRight=3;rotatable=0;labelPosition=right;points=[];portConstraint=eastwest;strokeColor=inherit;" vertex="1" parent="lS8r_42K6CeIt3bEVWHj-57">
          <mxGeometry y="26" width="160" height="8" as="geometry" />
        </mxCell>
        <mxCell id="lS8r_42K6CeIt3bEVWHj-65" style="edgeStyle=none;rounded=0;orthogonalLoop=1;jettySize=auto;html=1;exitX=0;exitY=0.5;exitDx=0;exitDy=0;entryX=1;entryY=0.5;entryDx=0;entryDy=0;endArrow=diamondThin;endFill=1;" edge="1" parent="1" source="lS8r_42K6CeIt3bEVWHj-8" target="lS8r_42K6CeIt3bEVWHj-53">
          <mxGeometry relative="1" as="geometry" />
        </mxCell>
      </root>
    </mxGraphModel>
  </diagram>
</mxfile>
